<svg xmlns:xlink="http://www.w3.org/1999/xlink" xmlns="http://www.w3.org/2000/svg" viewBox="0 0 24 24" width="20" height="20" class="d Vb UmNoP"><path fill-rule="evenodd" clip-rule="evenodd" d="M9.19 4.25h5.62l2 2H20c.966 0 1.75.784 1.75 1.75v10A1.75 1.75 0 0120 19.75H4A1.75 1.75 0 012.25 18V8c0-.966.784-1.75 1.75-1.75h3.19l2-2zm.62 1.5l-2 2H4a.25.25 0 00-.25.25v10c0 .138.112.25.25.25h16a.25.25 0 00.25-.25V8a.25.25 0 00-.25-.25h-3.81l-2-2H9.81zm2.19 4.5a2.25 2.25 0 100 4.5 2.25 2.25 0 000-4.5zM8.25 12.5a3.75 3.75 0 117.5 0 3.75 3.75 0 01-7.5 0z"></path></svg>